<svg width="18" height="18" viewBox="0 0 18 18" fill="none" xmlns="http://www.w3.org/2000/svg">
<path d="M12.5881 13.6883L12.7715 16.4787L9.01046 14.5172L5.22838 16.4806L5.41187 13.6883H3.82347L3.54971 17.8554H5.36879L9.00838 15.966L12.6311 17.8554H14.4503L14.1765 13.6883H12.5881ZM16.903 5.16496L16.7942 3.37707L14.7856 2.41243L13.5 0.904884L11.1176 0.823031L9 0L6.88242 0.823217L4.5 0.90507L3.21437 2.41243L1.20576 3.37707L1.09699 5.16496L0 6.75417L1.09699 8.34342L1.20606 10.1313L3.21437 11.0959L4.4998 12.6035L6.88222 12.6852L9 13.5084L11.1176 12.6852L13.5 12.6035L14.7854 11.0959L16.7942 10.1314L16.903 8.34357L18 6.75432L16.903 5.16496ZM15.3341 8.02791L15.2467 9.46086L13.6367 10.234L12.6065 11.4423L10.697 11.5077L9 12.1675L7.30278 11.5077L5.39333 11.4423L4.36312 10.234L2.75331 9.46086L2.6661 8.02791L1.78655 6.75417L2.6659 5.48069L2.75331 4.04752L4.36312 3.27438L5.39333 2.06615L7.30278 2.00067L9 1.34086L10.6972 2.00063L12.6067 2.06612L13.6369 3.27434L15.2467 4.04752L15.3339 5.4805L16.2134 6.75417L15.3341 8.02791Z" fill="#FF9C00"/>
</svg>
