<svg width="19" height="18" viewBox="0 0 19 18" fill="none" xmlns="http://www.w3.org/2000/svg">
<path d="M9.5 0C14.7469 0 19 3.89947 19 8.71C19 13.5205 14.7469 17.42 9.5 17.42C4.25315 17.42 0 13.5205 0 8.71C0 3.89947 4.25315 0 9.5 0ZM9.5 1.742C7.48435 1.742 5.55126 2.47613 4.12599 3.78288C2.70071 5.08964 1.9 6.86197 1.9 8.71C1.9 10.558 2.70071 12.3304 4.12599 13.6371C5.55126 14.9439 7.48435 15.678 9.5 15.678C11.5156 15.678 13.4487 14.9439 14.874 13.6371C16.2993 12.3304 17.1 10.558 17.1 8.71C17.1 6.86197 16.2993 5.08964 14.874 3.78288C13.4487 2.47613 11.5156 1.742 9.5 1.742ZM9.5 3.484C9.73269 3.48403 9.95727 3.56235 10.1312 3.70412C10.305 3.84588 10.4161 4.04122 10.4433 4.25309L10.45 4.355V8.34941L13.0216 10.7072C13.192 10.8639 13.2909 11.0743 13.2983 11.2955C13.3057 11.5167 13.2209 11.7321 13.0613 11.8981C12.9017 12.0641 12.6791 12.1681 12.4388 12.1891C12.1986 12.2101 11.9586 12.1465 11.7676 12.0111L11.6784 11.9388L8.82835 9.3258C8.6807 9.19031 8.58587 9.01398 8.55855 8.8241L8.55 8.71V4.355C8.55 4.124 8.65009 3.90246 8.82825 3.73911C9.00641 3.57577 9.24804 3.484 9.5 3.484Z" fill="#FF9C00"/>
</svg>
