<svg width="18" height="15" viewBox="0 0 18 15" fill="none" xmlns="http://www.w3.org/2000/svg">
<path d="M9 0C9.19891 0 9.38968 0.0634527 9.53033 0.176399C9.67098 0.289346 9.75 0.442534 9.75 0.602264V3.01132C9.75 3.17105 9.67098 3.32424 9.53033 3.43719C9.38968 3.55013 9.19891 3.61358 9 3.61358C8.80109 3.61358 8.61032 3.55013 8.46967 3.43719C8.32902 3.32424 8.25 3.17105 8.25 3.01132V0.602264C8.25 0.442534 8.32902 0.289346 8.46967 0.176399C8.61032 0.0634527 8.80109 0 9 0ZM3.69675 2.11696C3.5553 2.00725 3.36585 1.94655 3.1692 1.94792C2.97255 1.94929 2.78444 2.01263 2.64539 2.12429C2.50633 2.23596 2.42745 2.38701 2.42574 2.54493C2.42404 2.70284 2.49963 2.85497 2.63625 2.96856L4.75725 4.67176C4.8987 4.78147 5.08815 4.84217 5.2848 4.8408C5.48145 4.83943 5.66956 4.77609 5.80861 4.66443C5.94767 4.55276 6.02655 4.40171 6.02826 4.24379C6.02996 4.08588 5.95437 3.93375 5.81775 3.82016L3.69675 2.11696ZM0.75 6.62491C0.551088 6.62491 0.360322 6.68836 0.21967 6.8013C0.0790176 6.91425 0 7.06744 0 7.22717C0 7.3869 0.0790176 7.54009 0.21967 7.65303C0.360322 7.76598 0.551088 7.82943 0.75 7.82943H3.75C3.94891 7.82943 4.13968 7.76598 4.28033 7.65303C4.42098 7.54009 4.5 7.3869 4.5 7.22717C4.5 7.06744 4.42098 6.91425 4.28033 6.8013C4.13968 6.68836 3.94891 6.62491 3.75 6.62491H0.75ZM13.5 7.22717C13.5 7.06744 13.579 6.91425 13.7197 6.8013C13.8603 6.68836 14.0511 6.62491 14.25 6.62491H17.25C17.4489 6.62491 17.6397 6.68836 17.7803 6.8013C17.921 6.91425 18 7.06744 18 7.22717C18 7.3869 17.921 7.54009 17.7803 7.65303C17.6397 7.76598 17.4489 7.82943 17.25 7.82943H14.25C14.0511 7.82943 13.8603 7.76598 13.7197 7.65303C13.579 7.54009 13.5 7.3869 13.5 7.22717ZM13.2428 9.78258C13.1013 9.67287 12.9118 9.61216 12.7152 9.61354C12.5186 9.61491 12.3304 9.67825 12.1914 9.78991C12.0523 9.90158 11.9735 10.0526 11.9717 10.2105C11.97 10.3685 12.0456 10.5206 12.1823 10.6342L14.3032 12.3374C14.3724 12.3949 14.4552 12.4408 14.5467 12.4723C14.6382 12.5039 14.7366 12.5205 14.8362 12.5212C14.9358 12.5219 15.0345 12.5067 15.1267 12.4764C15.2189 12.4461 15.3026 12.4014 15.373 12.3448C15.4435 12.2883 15.4992 12.2211 15.5369 12.147C15.5746 12.073 15.5936 11.9937 15.5927 11.9137C15.5918 11.8338 15.5711 11.7547 15.5318 11.6813C15.4925 11.6078 15.4354 11.5413 15.3638 11.4858L13.2428 9.78258ZM5.81775 10.6342C5.88938 10.5786 5.94652 10.5122 5.98583 10.4387C6.02513 10.3652 6.04582 10.2862 6.04669 10.2062C6.04755 10.1262 6.02858 10.0469 5.99087 9.97292C5.95316 9.8989 5.89747 9.83166 5.82705 9.77511C5.75663 9.71856 5.67289 9.67384 5.58072 9.64356C5.48854 9.61328 5.38978 9.59804 5.2902 9.59873C5.19061 9.59943 5.0922 9.61604 5.0007 9.64761C4.90919 9.67917 4.82644 9.72505 4.75725 9.78258L2.63625 11.4852C2.56462 11.5407 2.50748 11.6072 2.46817 11.6807C2.42887 11.7541 2.40818 11.8332 2.40731 11.9131C2.40645 11.9931 2.42542 12.0724 2.46313 12.1464C2.50084 12.2205 2.55653 12.2877 2.62695 12.3442C2.69737 12.4008 2.78111 12.4455 2.87328 12.4758C2.96546 12.5061 3.06422 12.5213 3.1638 12.5206C3.26339 12.5199 3.3618 12.5033 3.4533 12.4717C3.54481 12.4402 3.62756 12.3943 3.69675 12.3368L5.81775 10.6342ZM15.3638 2.96856C15.5004 2.85497 15.576 2.70284 15.5743 2.54493C15.5725 2.38701 15.4937 2.23596 15.3546 2.12429C15.2156 2.01263 15.0274 1.94929 14.8308 1.94792C14.6342 1.94655 14.4447 2.00725 14.3032 2.11696L12.1823 3.82016C12.1106 3.87572 12.0535 3.94217 12.0142 4.01565C11.9749 4.08913 11.9542 4.16816 11.9533 4.24813C11.9524 4.3281 11.9714 4.4074 12.0091 4.48142C12.0468 4.55544 12.1025 4.62268 12.173 4.67923C12.2434 4.73578 12.3271 4.7805 12.4193 4.81078C12.5115 4.84106 12.6102 4.8563 12.7098 4.8556C12.8094 4.85491 12.9078 4.83829 12.9993 4.80673C13.0908 4.77517 13.1736 4.72929 13.2428 4.67176L15.3638 2.96856ZM9.75 11.443C9.75 11.2833 9.67098 11.1301 9.53033 11.0172C9.38968 10.9042 9.19891 10.8408 9 10.8408C8.80109 10.8408 8.61032 10.9042 8.46967 11.0172C8.32902 11.1301 8.25 11.2833 8.25 11.443V13.8521C8.25 14.0118 8.32902 14.165 8.46967 14.2779C8.61032 14.3909 8.80109 14.4543 9 14.4543C9.19891 14.4543 9.38968 14.3909 9.53033 14.2779C9.67098 14.165 9.75 14.0118 9.75 13.8521V11.443ZM9 9.63623C9.79565 9.63623 10.5587 9.38241 11.1213 8.93063C11.6839 8.47884 12 7.86609 12 7.22717C12 6.58825 11.6839 5.97549 11.1213 5.52371C10.5587 5.07192 9.79565 4.81811 9 4.81811C8.20435 4.81811 7.44129 5.07192 6.87868 5.52371C6.31607 5.97549 6 6.58825 6 7.22717C6 7.86609 6.31607 8.47884 6.87868 8.93063C7.44129 9.38241 8.20435 9.63623 9 9.63623Z" fill="#FF9C00"/>
</svg>
